<?xml version="1.0" encoding="UTF-8" standalone="no"?>
<!-- Generator: Adobe Illustrator 16.0.0, SVG Export Plug-In . SVG Version: 6.00 Build 0)  -->

<svg
   xmlns:dc="http://purl.org/dc/elements/1.1/"
   xmlns:cc="http://creativecommons.org/ns#"
   xmlns:rdf="http://www.w3.org/1999/02/22-rdf-syntax-ns#"
   xmlns:svg="http://www.w3.org/2000/svg"
   xmlns="http://www.w3.org/2000/svg"
   xmlns:sodipodi="http://sodipodi.sourceforge.net/DTD/sodipodi-0.dtd"
   xmlns:inkscape="http://www.inkscape.org/namespaces/inkscape"
   version="1.1"
   id="Layer_1"
   x="0px"
   y="0px"
   width="100px"
   height="100px"
   viewBox="0 0 100 100"
   enable-background="new 0 0 100 100"
   xml:space="preserve"
   sodipodi:docname="clear-night.svg"
   inkscape:version="0.92.1 r15371"><metadata
     id="metadata4669"><rdf:RDF><cc:Work
         rdf:about=""><dc:format>image/svg+xml</dc:format><dc:type
           rdf:resource="http://purl.org/dc/dcmitype/StillImage" /><dc:title></dc:title></cc:Work></rdf:RDF></metadata><defs
     id="defs4667" /><sodipodi:namedview
     pagecolor="#ffffff"
     bordercolor="#666666"
     borderopacity="1"
     objecttolerance="10"
     gridtolerance="10"
     guidetolerance="10"
     inkscape:pageopacity="0"
     inkscape:pageshadow="2"
     inkscape:window-width="640"
     inkscape:window-height="480"
     id="namedview4665"
     showgrid="false"
     inkscape:zoom="2.36"
     inkscape:cx="50"
     inkscape:cy="50"
     inkscape:window-x="0"
     inkscape:window-y="0"
     inkscape:window-maximized="0"
     inkscape:current-layer="Layer_1" /><g
     id="g4662"
     transform="matrix(3.1719869,0,0,3.1719869,-108.01183,-114.22567)"><path
       d="m 49.864,67.002 c -8.403,0 -15.239,-6.836 -15.239,-15.239 0,-7.884 5.912,-14.403 13.751,-15.164 0.502,-0.05 0.976,0.226 1.183,0.684 0.208,0.458 0.102,0.997 -0.264,1.341 -1.911,1.799 -2.963,4.226 -2.963,6.835 0,5.182 4.216,9.398 9.398,9.398 2.826,0 5.475,-1.256 7.27,-3.444 0.319,-0.389 0.851,-0.53 1.319,-0.356 0.471,0.176 0.777,0.632 0.763,1.134 -0.23,8.305 -6.915,14.811 -15.218,14.811 z M 45.539,39.613 c -5.047,1.775 -8.565,6.557 -8.565,12.15 0,7.108 5.782,12.89 12.89,12.89 5.953,0 10.922,-3.955 12.416,-9.439 -1.914,1.289 -4.183,1.994 -6.55,1.994 -6.478,0 -11.748,-5.269 -11.748,-11.748 0,-2.092 0.54,-4.09 1.557,-5.847 z"
       id="path4660"
       inkscape:connector-curvature="0" /></g></svg>